<mxfile host="app.diagrams.net" agent="Mozilla/5.0 (X11; Linux x86_64; rv:131.0) Gecko/20100101 Firefox/131.0" version="24.8.0">
  <diagram name="Page-1" id="XrRoJyVoxyt1KXuFEkB2">
    <mxGraphModel dx="2350" dy="1174" grid="1" gridSize="10" guides="1" tooltips="1" connect="1" arrows="1" fold="1" page="1" pageScale="1" pageWidth="850" pageHeight="1100" background="#994C00" math="0" shadow="0">
      <root>
        <mxCell id="0" />
        <mxCell id="1" parent="0" />
        <mxCell id="JxsMiMLw6dN9_I1CwBWg-2" value="`" style="swimlane;startSize=0;strokeWidth=2;" parent="1" vertex="1">
          <mxGeometry x="-255" y="80" width="420" height="980" as="geometry">
            <mxRectangle y="110" width="50" height="40" as="alternateBounds" />
          </mxGeometry>
        </mxCell>
        <mxCell id="JxsMiMLw6dN9_I1CwBWg-3" value="&lt;span style=&quot;font-size: 15px;&quot;&gt;Log in&lt;br&gt;&lt;/span&gt;" style="ellipse;whiteSpace=wrap;html=1;" parent="JxsMiMLw6dN9_I1CwBWg-2" vertex="1">
          <mxGeometry x="80" y="20" width="90" height="50" as="geometry" />
        </mxCell>
        <mxCell id="JxsMiMLw6dN9_I1CwBWg-5" value="Verify log in" style="ellipse;whiteSpace=wrap;html=1;" parent="JxsMiMLw6dN9_I1CwBWg-2" vertex="1">
          <mxGeometry x="275" y="130" width="100" height="50" as="geometry" />
        </mxCell>
        <mxCell id="JxsMiMLw6dN9_I1CwBWg-4" value="Show Error" style="ellipse;whiteSpace=wrap;html=1;" parent="JxsMiMLw6dN9_I1CwBWg-2" vertex="1">
          <mxGeometry x="290" y="20" width="100" height="60" as="geometry" />
        </mxCell>
        <mxCell id="JxsMiMLw6dN9_I1CwBWg-7" value="&lt;b&gt;&lt;font style=&quot;font-size: 12px;&quot;&gt;&amp;lt;&amp;lt;extend&amp;gt;&amp;gt;&lt;/font&gt;&lt;/b&gt;" style="edgeStyle=none;html=1;startArrow=open;endArrow=none;startSize=12;verticalAlign=bottom;dashed=1;labelBackgroundColor=none;rounded=0;exitX=1;exitY=0.5;exitDx=0;exitDy=0;strokeWidth=2;" parent="JxsMiMLw6dN9_I1CwBWg-2" source="JxsMiMLw6dN9_I1CwBWg-3" target="JxsMiMLw6dN9_I1CwBWg-4" edge="1">
          <mxGeometry x="0.4784" y="10" width="160" relative="1" as="geometry">
            <mxPoint x="100" y="170" as="sourcePoint" />
            <mxPoint x="260" y="170" as="targetPoint" />
            <mxPoint as="offset" />
          </mxGeometry>
        </mxCell>
        <mxCell id="JxsMiMLw6dN9_I1CwBWg-8" value="&lt;b&gt;&lt;font style=&quot;font-size: 12px;&quot;&gt;&amp;lt;&amp;lt;include&amp;gt;&amp;gt;&lt;/font&gt;&lt;/b&gt;" style="edgeStyle=none;html=1;endArrow=open;verticalAlign=bottom;dashed=1;labelBackgroundColor=none;rounded=0;exitX=0.936;exitY=0.704;exitDx=0;exitDy=0;entryX=0;entryY=0;entryDx=0;entryDy=0;strokeWidth=2;exitPerimeter=0;" parent="JxsMiMLw6dN9_I1CwBWg-2" source="JxsMiMLw6dN9_I1CwBWg-3" target="JxsMiMLw6dN9_I1CwBWg-5" edge="1">
          <mxGeometry x="0.3587" y="10" width="160" relative="1" as="geometry">
            <mxPoint x="150" y="70" as="sourcePoint" />
            <mxPoint x="310" y="70" as="targetPoint" />
            <mxPoint y="1" as="offset" />
          </mxGeometry>
        </mxCell>
        <mxCell id="JxsMiMLw6dN9_I1CwBWg-23" value="&lt;div&gt;Manage &lt;br&gt;&lt;/div&gt;&lt;div&gt;Employees&lt;br&gt;&lt;/div&gt;" style="ellipse;whiteSpace=wrap;html=1;" parent="JxsMiMLw6dN9_I1CwBWg-2" vertex="1">
          <mxGeometry x="165" y="539" width="90" height="50" as="geometry" />
        </mxCell>
        <mxCell id="JxsMiMLw6dN9_I1CwBWg-25" value="&lt;div&gt;Delete&lt;br&gt;&lt;/div&gt;&lt;div&gt;Employee&lt;br&gt;&lt;/div&gt;" style="ellipse;whiteSpace=wrap;html=1;" parent="JxsMiMLw6dN9_I1CwBWg-2" vertex="1">
          <mxGeometry x="310" y="634" width="90" height="50" as="geometry" />
        </mxCell>
        <mxCell id="JxsMiMLw6dN9_I1CwBWg-24" value="&lt;div&gt;Update&lt;/div&gt;&lt;div&gt;Employee&#39;s&lt;/div&gt;&lt;div&gt;data&lt;br&gt;&lt;/div&gt;" style="ellipse;whiteSpace=wrap;html=1;" parent="JxsMiMLw6dN9_I1CwBWg-2" vertex="1">
          <mxGeometry x="108" y="675" width="90" height="50" as="geometry" />
        </mxCell>
        <mxCell id="JxsMiMLw6dN9_I1CwBWg-53" value="&lt;div&gt;Display&lt;/div&gt;&lt;div&gt;Private Data&lt;br&gt;&lt;/div&gt;" style="ellipse;whiteSpace=wrap;html=1;" parent="JxsMiMLw6dN9_I1CwBWg-2" vertex="1">
          <mxGeometry x="139" y="150" width="100" height="60" as="geometry" />
        </mxCell>
        <mxCell id="f0pmYPqC95e-Tis89BE7-5" value="&lt;div&gt;Read &lt;br&gt;&lt;/div&gt;&lt;div&gt;Employee&lt;br&gt;&lt;/div&gt;" style="ellipse;whiteSpace=wrap;html=1;" parent="JxsMiMLw6dN9_I1CwBWg-2" vertex="1">
          <mxGeometry x="218" y="675" width="90" height="50" as="geometry" />
        </mxCell>
        <mxCell id="f0pmYPqC95e-Tis89BE7-6" value="&lt;div&gt;Create&lt;br&gt;&lt;/div&gt;&lt;div&gt;Employee&lt;br&gt;&lt;/div&gt;" style="ellipse;whiteSpace=wrap;html=1;" parent="JxsMiMLw6dN9_I1CwBWg-2" vertex="1">
          <mxGeometry x="20" y="634" width="90" height="50" as="geometry" />
        </mxCell>
        <mxCell id="JxsMiMLw6dN9_I1CwBWg-26" value="Generate reports" style="ellipse;whiteSpace=wrap;html=1;" parent="JxsMiMLw6dN9_I1CwBWg-2" vertex="1">
          <mxGeometry x="159" y="400" width="90" height="50" as="geometry" />
        </mxCell>
        <mxCell id="f0pmYPqC95e-Tis89BE7-45" value="&lt;code&gt;View Team Data&lt;/code&gt;" style="ellipse;whiteSpace=wrap;html=1;" parent="JxsMiMLw6dN9_I1CwBWg-2" vertex="1">
          <mxGeometry x="39" y="330" width="100" height="60" as="geometry" />
        </mxCell>
        <mxCell id="f0pmYPqC95e-Tis89BE7-52" value="" style="edgeStyle=none;html=1;endArrow=block;endFill=0;endSize=12;verticalAlign=bottom;rounded=0;entryX=0.5;entryY=1;entryDx=0;entryDy=0;exitX=0.5;exitY=0;exitDx=0;exitDy=0;" parent="JxsMiMLw6dN9_I1CwBWg-2" source="JxsMiMLw6dN9_I1CwBWg-25" target="JxsMiMLw6dN9_I1CwBWg-23" edge="1">
          <mxGeometry width="160" relative="1" as="geometry">
            <mxPoint x="357" y="635" as="sourcePoint" />
            <mxPoint x="300" y="645" as="targetPoint" />
            <Array as="points">
              <mxPoint x="210" y="635" />
            </Array>
          </mxGeometry>
        </mxCell>
        <mxCell id="f0pmYPqC95e-Tis89BE7-53" value="" style="edgeStyle=none;html=1;endArrow=none;verticalAlign=bottom;rounded=0;exitX=0.5;exitY=0;exitDx=0;exitDy=0;" parent="JxsMiMLw6dN9_I1CwBWg-2" source="f0pmYPqC95e-Tis89BE7-6" edge="1">
          <mxGeometry width="160" relative="1" as="geometry">
            <mxPoint x="70" y="615" as="sourcePoint" />
            <mxPoint x="210" y="635" as="targetPoint" />
          </mxGeometry>
        </mxCell>
        <mxCell id="f0pmYPqC95e-Tis89BE7-55" value="" style="edgeStyle=none;html=1;endArrow=none;verticalAlign=bottom;rounded=0;entryX=0.5;entryY=0;entryDx=0;entryDy=0;exitX=0.5;exitY=0;exitDx=0;exitDy=0;" parent="JxsMiMLw6dN9_I1CwBWg-2" source="JxsMiMLw6dN9_I1CwBWg-24" target="f0pmYPqC95e-Tis89BE7-5" edge="1">
          <mxGeometry width="160" relative="1" as="geometry">
            <mxPoint x="-2" y="575" as="sourcePoint" />
            <mxPoint x="158" y="575" as="targetPoint" />
          </mxGeometry>
        </mxCell>
        <mxCell id="f0pmYPqC95e-Tis89BE7-57" value="" style="edgeStyle=none;html=1;endArrow=none;verticalAlign=bottom;rounded=0;" parent="JxsMiMLw6dN9_I1CwBWg-2" edge="1">
          <mxGeometry width="160" relative="1" as="geometry">
            <mxPoint x="210" y="635" as="sourcePoint" />
            <mxPoint x="210" y="675" as="targetPoint" />
          </mxGeometry>
        </mxCell>
        <mxCell id="Ma0ZafueXGMpJPAvqaDE-1" value="&lt;span style=&quot;font-size: 15px;&quot;&gt;Log out&lt;br&gt;&lt;/span&gt;" style="ellipse;whiteSpace=wrap;html=1;" vertex="1" parent="JxsMiMLw6dN9_I1CwBWg-2">
          <mxGeometry x="80" y="87" width="90" height="50" as="geometry" />
        </mxCell>
        <mxCell id="Ma0ZafueXGMpJPAvqaDE-7" value="Assign Tasks" style="ellipse;whiteSpace=wrap;html=1;" vertex="1" parent="JxsMiMLw6dN9_I1CwBWg-2">
          <mxGeometry x="130" y="280" width="100" height="60" as="geometry" />
        </mxCell>
        <mxCell id="f0pmYPqC95e-Tis89BE7-16" value="&lt;div&gt;Create&lt;br&gt;&lt;/div&gt;&lt;div&gt;Department&lt;br&gt;&lt;/div&gt;" style="ellipse;whiteSpace=wrap;html=1;" parent="JxsMiMLw6dN9_I1CwBWg-2" vertex="1">
          <mxGeometry x="10" y="877" width="90" height="47" as="geometry" />
        </mxCell>
        <mxCell id="f0pmYPqC95e-Tis89BE7-13" value="&lt;div&gt;Delete&lt;br&gt;&lt;/div&gt;&lt;div&gt;Department&lt;br&gt;&lt;/div&gt;" style="ellipse;whiteSpace=wrap;html=1;" parent="JxsMiMLw6dN9_I1CwBWg-2" vertex="1">
          <mxGeometry x="322" y="876" width="90" height="50" as="geometry" />
        </mxCell>
        <mxCell id="Ma0ZafueXGMpJPAvqaDE-16" value="For Departments" style="ellipse;whiteSpace=wrap;html=1;" vertex="1" parent="JxsMiMLw6dN9_I1CwBWg-2">
          <mxGeometry x="220" y="470" width="90" height="50" as="geometry" />
        </mxCell>
        <mxCell id="Ma0ZafueXGMpJPAvqaDE-15" value="For Subordinates" style="ellipse;whiteSpace=wrap;html=1;" vertex="1" parent="JxsMiMLw6dN9_I1CwBWg-2">
          <mxGeometry x="89" y="470" width="90" height="50" as="geometry" />
        </mxCell>
        <mxCell id="Ma0ZafueXGMpJPAvqaDE-17" value="" style="edgeStyle=none;html=1;endArrow=block;endFill=0;endSize=12;verticalAlign=bottom;rounded=0;entryX=0.5;entryY=1;entryDx=0;entryDy=0;exitX=0.5;exitY=0;exitDx=0;exitDy=0;" edge="1" parent="JxsMiMLw6dN9_I1CwBWg-2" source="Ma0ZafueXGMpJPAvqaDE-16" target="JxsMiMLw6dN9_I1CwBWg-26">
          <mxGeometry width="160" relative="1" as="geometry">
            <mxPoint x="129" y="460" as="sourcePoint" />
            <mxPoint x="289" y="460" as="targetPoint" />
            <Array as="points">
              <mxPoint x="204" y="470" />
            </Array>
          </mxGeometry>
        </mxCell>
        <mxCell id="f0pmYPqC95e-Tis89BE7-12" value="&lt;div&gt;Manage &lt;br&gt;&lt;/div&gt;&lt;div&gt;Departments&lt;br&gt;&lt;/div&gt;" style="ellipse;whiteSpace=wrap;html=1;" parent="JxsMiMLw6dN9_I1CwBWg-2" vertex="1">
          <mxGeometry x="172" y="760" width="90" height="50" as="geometry" />
        </mxCell>
        <mxCell id="f0pmYPqC95e-Tis89BE7-17" value="" style="edgeStyle=none;html=1;endArrow=block;endFill=0;endSize=12;verticalAlign=bottom;rounded=0;entryX=0.5;entryY=1;entryDx=0;entryDy=0;exitX=0.507;exitY=0.007;exitDx=0;exitDy=0;exitPerimeter=0;" parent="JxsMiMLw6dN9_I1CwBWg-2" source="f0pmYPqC95e-Tis89BE7-13" target="f0pmYPqC95e-Tis89BE7-12" edge="1">
          <mxGeometry width="160" relative="1" as="geometry">
            <mxPoint x="368" y="890" as="sourcePoint" />
            <mxPoint x="258" y="930" as="targetPoint" />
            <Array as="points">
              <mxPoint x="368" y="845" />
              <mxPoint x="219" y="845" />
            </Array>
          </mxGeometry>
        </mxCell>
        <mxCell id="Ma0ZafueXGMpJPAvqaDE-4" value="Update Personal Information" style="ellipse;whiteSpace=wrap;html=1;" vertex="1" parent="JxsMiMLw6dN9_I1CwBWg-2">
          <mxGeometry x="212" y="220" width="102" height="65" as="geometry" />
        </mxCell>
        <mxCell id="JxsMiMLw6dN9_I1CwBWg-9" value="User" style="shape=umlActor;html=1;verticalLabelPosition=bottom;verticalAlign=top;align=center;strokeWidth=2;" parent="1" vertex="1">
          <mxGeometry x="-454" y="107" width="30" height="60" as="geometry" />
        </mxCell>
        <mxCell id="JxsMiMLw6dN9_I1CwBWg-11" value="" style="edgeStyle=none;html=1;endArrow=none;verticalAlign=bottom;rounded=0;entryX=0;entryY=0.5;entryDx=0;entryDy=0;strokeWidth=1;exitX=1;exitY=0.3333333333333333;exitDx=0;exitDy=0;exitPerimeter=0;" parent="1" source="JxsMiMLw6dN9_I1CwBWg-9" target="JxsMiMLw6dN9_I1CwBWg-3" edge="1">
          <mxGeometry width="160" relative="1" as="geometry">
            <mxPoint x="-380" y="200" as="sourcePoint" />
            <mxPoint y="190" as="targetPoint" />
          </mxGeometry>
        </mxCell>
        <mxCell id="JxsMiMLw6dN9_I1CwBWg-28" value="Admin" style="shape=umlActor;html=1;verticalLabelPosition=bottom;verticalAlign=top;align=center;strokeWidth=2;" parent="1" vertex="1">
          <mxGeometry x="-508" y="580" width="30" height="60" as="geometry" />
        </mxCell>
        <mxCell id="JxsMiMLw6dN9_I1CwBWg-29" value="Normal user" style="shape=umlActor;html=1;verticalLabelPosition=bottom;verticalAlign=top;align=center;strokeWidth=2;" parent="1" vertex="1">
          <mxGeometry x="-404" y="287" width="30" height="60" as="geometry" />
        </mxCell>
        <mxCell id="JxsMiMLw6dN9_I1CwBWg-35" value="" style="edgeStyle=none;html=1;endArrow=block;endFill=0;endSize=12;verticalAlign=bottom;rounded=0;exitX=0.5;exitY=0;exitDx=0;exitDy=0;exitPerimeter=0;" parent="1" source="JxsMiMLw6dN9_I1CwBWg-29" edge="1">
          <mxGeometry width="160" relative="1" as="geometry">
            <mxPoint x="-394" y="287" as="sourcePoint" />
            <mxPoint x="-439.20000000000005" y="186.9974193548387" as="targetPoint" />
            <Array as="points">
              <mxPoint x="-439" y="287" />
            </Array>
          </mxGeometry>
        </mxCell>
        <mxCell id="JxsMiMLw6dN9_I1CwBWg-36" value="" style="edgeStyle=none;html=1;endArrow=none;verticalAlign=bottom;rounded=0;exitX=0.5;exitY=0;exitDx=0;exitDy=0;exitPerimeter=0;" parent="1" source="JxsMiMLw6dN9_I1CwBWg-28" edge="1">
          <mxGeometry width="160" relative="1" as="geometry">
            <mxPoint x="-489" y="289" as="sourcePoint" />
            <mxPoint x="-440" y="287" as="targetPoint" />
            <Array as="points">
              <mxPoint x="-490" y="287" />
            </Array>
          </mxGeometry>
        </mxCell>
        <mxCell id="JxsMiMLw6dN9_I1CwBWg-55" value="" style="edgeStyle=none;html=1;endArrow=none;verticalAlign=bottom;rounded=0;entryX=0.089;entryY=0.185;entryDx=0;entryDy=0;strokeWidth=1;exitX=1;exitY=0.3333333333333333;exitDx=0;exitDy=0;exitPerimeter=0;entryPerimeter=0;" parent="1" source="JxsMiMLw6dN9_I1CwBWg-9" target="JxsMiMLw6dN9_I1CwBWg-53" edge="1">
          <mxGeometry width="160" relative="1" as="geometry">
            <mxPoint x="-364" y="317" as="sourcePoint" />
            <mxPoint x="-190" y="115" as="targetPoint" />
            <Array as="points">
              <mxPoint x="-210" y="230" />
            </Array>
          </mxGeometry>
        </mxCell>
        <mxCell id="f0pmYPqC95e-Tis89BE7-14" value="&lt;div&gt;Update&lt;/div&gt;&lt;div&gt;Department&lt;br&gt;&lt;/div&gt;" style="ellipse;whiteSpace=wrap;html=1;" parent="1" vertex="1">
          <mxGeometry x="-144" y="955" width="90" height="50" as="geometry" />
        </mxCell>
        <mxCell id="f0pmYPqC95e-Tis89BE7-15" value="&lt;div&gt;Read &lt;br&gt;&lt;/div&gt;&lt;div&gt;Departments&lt;br&gt;&lt;/div&gt;" style="ellipse;whiteSpace=wrap;html=1;" parent="1" vertex="1">
          <mxGeometry x="-40" y="955" width="90" height="50" as="geometry" />
        </mxCell>
        <mxCell id="f0pmYPqC95e-Tis89BE7-18" value="" style="edgeStyle=none;html=1;endArrow=none;verticalAlign=bottom;rounded=0;entryX=0.5;entryY=0;entryDx=0;entryDy=0;" parent="1" target="f0pmYPqC95e-Tis89BE7-14" edge="1">
          <mxGeometry width="160" relative="1" as="geometry">
            <mxPoint x="-100" y="925" as="sourcePoint" />
            <mxPoint x="-91" y="915" as="targetPoint" />
          </mxGeometry>
        </mxCell>
        <mxCell id="f0pmYPqC95e-Tis89BE7-19" value="" style="edgeStyle=none;html=1;endArrow=none;verticalAlign=bottom;rounded=0;exitX=0.5;exitY=0;exitDx=0;exitDy=0;" parent="1" source="f0pmYPqC95e-Tis89BE7-16" edge="1">
          <mxGeometry width="160" relative="1" as="geometry">
            <mxPoint x="-211" y="955" as="sourcePoint" />
            <mxPoint x="-30" y="925" as="targetPoint" />
            <Array as="points">
              <mxPoint x="-200" y="925" />
            </Array>
          </mxGeometry>
        </mxCell>
        <mxCell id="f0pmYPqC95e-Tis89BE7-20" value="" style="edgeStyle=none;html=1;endArrow=none;verticalAlign=bottom;rounded=0;entryX=0.5;entryY=0;entryDx=0;entryDy=0;" parent="1" target="f0pmYPqC95e-Tis89BE7-15" edge="1">
          <mxGeometry width="160" relative="1" as="geometry">
            <mxPoint x="4" y="925" as="sourcePoint" />
            <mxPoint x="4" y="959" as="targetPoint" />
          </mxGeometry>
        </mxCell>
        <mxCell id="f0pmYPqC95e-Tis89BE7-40" value="" style="edgeStyle=none;html=1;endArrow=block;endFill=0;endSize=12;verticalAlign=bottom;rounded=0;exitX=0.5;exitY=0;exitDx=0;exitDy=0;exitPerimeter=0;" parent="1" source="f0pmYPqC95e-Tis89BE7-41" edge="1">
          <mxGeometry width="160" relative="1" as="geometry">
            <mxPoint x="-389.33000000000004" y="400" as="sourcePoint" />
            <mxPoint x="-389.33000000000004" y="370" as="targetPoint" />
            <Array as="points">
              <mxPoint x="-389" y="420" />
            </Array>
          </mxGeometry>
        </mxCell>
        <mxCell id="f0pmYPqC95e-Tis89BE7-41" value="Manager" style="shape=umlActor;html=1;verticalLabelPosition=bottom;verticalAlign=top;align=center;" parent="1" vertex="1">
          <mxGeometry x="-370" y="420" width="30" height="60" as="geometry" />
        </mxCell>
        <mxCell id="f0pmYPqC95e-Tis89BE7-42" value="Employee" style="shape=umlActor;html=1;verticalLabelPosition=bottom;verticalAlign=top;align=center;" parent="1" vertex="1">
          <mxGeometry x="-434" y="500" width="30" height="60" as="geometry" />
        </mxCell>
        <mxCell id="f0pmYPqC95e-Tis89BE7-44" value="" style="edgeStyle=none;html=1;endArrow=none;verticalAlign=bottom;rounded=0;exitX=0.5;exitY=0;exitDx=0;exitDy=0;exitPerimeter=0;" parent="1" source="f0pmYPqC95e-Tis89BE7-42" edge="1">
          <mxGeometry width="160" relative="1" as="geometry">
            <mxPoint x="-460" y="350" as="sourcePoint" />
            <mxPoint x="-390" y="420" as="targetPoint" />
            <Array as="points">
              <mxPoint x="-419" y="420" />
            </Array>
          </mxGeometry>
        </mxCell>
        <mxCell id="JxsMiMLw6dN9_I1CwBWg-37" value="" style="edgeStyle=none;html=1;endArrow=none;verticalAlign=bottom;rounded=0;entryX=0;entryY=0.5;entryDx=0;entryDy=0;strokeWidth=1;exitX=1;exitY=0.3333333333333333;exitDx=0;exitDy=0;exitPerimeter=0;" parent="1" source="f0pmYPqC95e-Tis89BE7-41" target="f0pmYPqC95e-Tis89BE7-45" edge="1">
          <mxGeometry width="160" relative="1" as="geometry">
            <mxPoint x="-840" y="896" as="sourcePoint" />
            <mxPoint x="-345" y="670" as="targetPoint" />
          </mxGeometry>
        </mxCell>
        <mxCell id="f0pmYPqC95e-Tis89BE7-58" value="" style="edgeStyle=none;html=1;endArrow=none;verticalAlign=bottom;rounded=0;exitX=1;exitY=0.3333333333333333;exitDx=0;exitDy=0;exitPerimeter=0;entryX=0;entryY=0.5;entryDx=0;entryDy=0;" parent="1" source="JxsMiMLw6dN9_I1CwBWg-28" target="JxsMiMLw6dN9_I1CwBWg-23" edge="1">
          <mxGeometry width="160" relative="1" as="geometry">
            <mxPoint x="-430" y="570" as="sourcePoint" />
            <mxPoint x="-270" y="570" as="targetPoint" />
            <Array as="points">
              <mxPoint x="-260" y="640" />
            </Array>
          </mxGeometry>
        </mxCell>
        <mxCell id="f0pmYPqC95e-Tis89BE7-59" value="" style="edgeStyle=none;html=1;endArrow=none;verticalAlign=bottom;rounded=0;exitX=1;exitY=0.3333333333333333;exitDx=0;exitDy=0;exitPerimeter=0;entryX=0.5;entryY=0;entryDx=0;entryDy=0;" parent="1" source="JxsMiMLw6dN9_I1CwBWg-28" target="f0pmYPqC95e-Tis89BE7-12" edge="1">
          <mxGeometry width="160" relative="1" as="geometry">
            <mxPoint x="-470" y="610" as="sourcePoint" />
            <mxPoint x="-45" y="489" as="targetPoint" />
            <Array as="points">
              <mxPoint x="-220" y="810" />
            </Array>
          </mxGeometry>
        </mxCell>
        <mxCell id="f0pmYPqC95e-Tis89BE7-60" value="" style="edgeStyle=none;html=1;endArrow=none;verticalAlign=bottom;rounded=0;entryX=0;entryY=1;entryDx=0;entryDy=0;exitX=1;exitY=0.3333333333333333;exitDx=0;exitDy=0;exitPerimeter=0;" parent="1" source="JxsMiMLw6dN9_I1CwBWg-28" target="JxsMiMLw6dN9_I1CwBWg-26" edge="1">
          <mxGeometry width="160" relative="1" as="geometry">
            <mxPoint x="-470" y="600" as="sourcePoint" />
            <mxPoint x="-45" y="489" as="targetPoint" />
          </mxGeometry>
        </mxCell>
        <mxCell id="f0pmYPqC95e-Tis89BE7-61" value="&lt;font style=&quot;font-size: 15px;&quot;&gt;&lt;b&gt;Employee Management System&lt;br&gt;&lt;/b&gt;&lt;/font&gt;" style="text;html=1;align=center;verticalAlign=middle;resizable=0;points=[];autosize=1;" parent="1" vertex="1">
          <mxGeometry x="-166" y="50" width="260" height="30" as="geometry" />
        </mxCell>
        <mxCell id="Ma0ZafueXGMpJPAvqaDE-2" value="" style="edgeStyle=none;html=1;endArrow=none;verticalAlign=bottom;rounded=0;strokeWidth=1;exitX=1;exitY=0.3333333333333333;exitDx=0;exitDy=0;exitPerimeter=0;entryX=0;entryY=0.5;entryDx=0;entryDy=0;" edge="1" parent="1" source="JxsMiMLw6dN9_I1CwBWg-9" target="Ma0ZafueXGMpJPAvqaDE-1">
          <mxGeometry width="160" relative="1" as="geometry">
            <mxPoint x="-414" y="137" as="sourcePoint" />
            <mxPoint x="-180" y="300" as="targetPoint" />
          </mxGeometry>
        </mxCell>
        <mxCell id="Ma0ZafueXGMpJPAvqaDE-9" value="" style="edgeStyle=none;html=1;endArrow=none;verticalAlign=bottom;rounded=0;entryX=0.021;entryY=0.344;entryDx=0;entryDy=0;strokeWidth=1;exitX=1;exitY=0.3333333333333333;exitDx=0;exitDy=0;exitPerimeter=0;entryPerimeter=0;" edge="1" parent="1" source="f0pmYPqC95e-Tis89BE7-41" target="Ma0ZafueXGMpJPAvqaDE-7">
          <mxGeometry width="160" relative="1" as="geometry">
            <mxPoint x="-330" y="450" as="sourcePoint" />
            <mxPoint x="-120" y="440" as="targetPoint" />
            <Array as="points">
              <mxPoint x="-200" y="350" />
            </Array>
          </mxGeometry>
        </mxCell>
        <mxCell id="Ma0ZafueXGMpJPAvqaDE-10" value="&lt;font style=&quot;font-size: 15px;&quot;&gt;Such as the address, contact mail and phone number.&lt;/font&gt;" style="shape=note;whiteSpace=wrap;html=1;backgroundOutline=1;darkOpacity=0.05;" vertex="1" parent="1">
          <mxGeometry x="220" y="180" width="210" height="60" as="geometry" />
        </mxCell>
        <mxCell id="Ma0ZafueXGMpJPAvqaDE-11" value="" style="endArrow=none;dashed=1;html=1;rounded=0;entryX=0;entryY=1;entryDx=0;entryDy=0;entryPerimeter=0;exitX=1;exitY=0;exitDx=0;exitDy=0;strokeWidth=2;" edge="1" parent="1" source="Ma0ZafueXGMpJPAvqaDE-4" target="Ma0ZafueXGMpJPAvqaDE-10">
          <mxGeometry width="50" height="50" relative="1" as="geometry">
            <mxPoint x="30" y="580" as="sourcePoint" />
            <mxPoint x="80" y="530" as="targetPoint" />
            <Array as="points">
              <mxPoint x="180" y="280" />
            </Array>
          </mxGeometry>
        </mxCell>
        <mxCell id="Ma0ZafueXGMpJPAvqaDE-13" value="" style="edgeStyle=none;html=1;endArrow=none;verticalAlign=bottom;rounded=0;entryX=0;entryY=0.5;entryDx=0;entryDy=0;" edge="1" parent="1" target="JxsMiMLw6dN9_I1CwBWg-26">
          <mxGeometry width="160" relative="1" as="geometry">
            <mxPoint x="-340" y="440" as="sourcePoint" />
            <mxPoint x="-110" y="493" as="targetPoint" />
            <Array as="points">
              <mxPoint x="-220" y="480" />
            </Array>
          </mxGeometry>
        </mxCell>
        <mxCell id="Ma0ZafueXGMpJPAvqaDE-19" value="" style="edgeStyle=none;html=1;endArrow=none;verticalAlign=bottom;rounded=0;exitX=0.5;exitY=0;exitDx=0;exitDy=0;" edge="1" parent="1" source="Ma0ZafueXGMpJPAvqaDE-15">
          <mxGeometry width="160" relative="1" as="geometry">
            <mxPoint x="-448" y="570" as="sourcePoint" />
            <mxPoint x="-50" y="550" as="targetPoint" />
          </mxGeometry>
        </mxCell>
        <mxCell id="Ma0ZafueXGMpJPAvqaDE-22" value="" style="edgeStyle=none;html=1;endArrow=none;verticalAlign=bottom;rounded=0;entryX=0;entryY=0.5;entryDx=0;entryDy=0;strokeWidth=1;exitX=1;exitY=0.3333333333333333;exitDx=0;exitDy=0;exitPerimeter=0;" edge="1" parent="1" source="JxsMiMLw6dN9_I1CwBWg-9" target="Ma0ZafueXGMpJPAvqaDE-4">
          <mxGeometry width="160" relative="1" as="geometry">
            <mxPoint x="-330" y="450" as="sourcePoint" />
            <mxPoint x="-200" y="460" as="targetPoint" />
            <Array as="points">
              <mxPoint x="-180" y="320" />
            </Array>
          </mxGeometry>
        </mxCell>
      </root>
    </mxGraphModel>
  </diagram>
</mxfile>
